<svg width="992" height="503" viewBox="0 0 992 503" fill="none" xmlns="http://www.w3.org/2000/svg">
<path fill-rule="evenodd" clip-rule="evenodd" d="M221.641 82.8814C214.72 82.8814 209.248 88.4941 209.248 95.4157V425.108C209.248 432.029 214.72 437.501 221.641 437.501H770.471C777.393 437.501 783.006 432.029 783.006 425.108V95.4157C783.006 88.4941 777.393 82.8814 770.471 82.8814H221.641V82.8814Z" fill="#C1C1C1" stroke="black" stroke-width="2.50669" stroke-linecap="round" stroke-linejoin="round"/>
<path d="M742.029 111.233H250.139C243.239 111.233 237.645 116.64 237.645 123.309V407.793C237.645 414.463 243.239 419.869 250.139 419.869H742.029C748.93 419.869 754.523 414.463 754.523 407.793V123.309C754.523 116.64 748.93 111.233 742.029 111.233Z" fill="#C1C1C1"/>
<path fill-rule="evenodd" clip-rule="evenodd" d="M95.8506 43.0174H245.247L233.539 23.7675C225.863 11.1464 205.908 1.77979 170.549 1.77979C135.19 1.77979 115.235 11.1464 107.559 23.7675L95.8506 43.0174Z" fill="white" stroke="black" stroke-width="3.15468"/>
<path fill-rule="evenodd" clip-rule="evenodd" d="M95.8506 75.3986H245.247L233.539 56.1486C225.863 43.5275 205.908 34.1609 170.549 34.1609C135.19 34.1609 115.235 43.5275 107.559 56.1486L95.8506 75.3986Z" fill="white" stroke="black" stroke-width="3.15468"/>
<path fill-rule="evenodd" clip-rule="evenodd" d="M343.722 246.642C343.722 340.995 267.234 417.483 172.88 417.483C78.5271 417.483 2.03857 340.995 2.03857 246.642C2.03857 152.288 78.5271 75.8 172.88 75.8C267.234 75.8 343.722 152.288 343.722 246.642Z" fill="#C1C1C1" stroke="black" stroke-width="3.17659" stroke-linecap="round" stroke-linejoin="round"/>
<path fill-rule="evenodd" clip-rule="evenodd" d="M445.049 392.771C445.049 452.636 396.518 501.167 336.653 501.167C276.787 501.167 228.257 452.636 228.257 392.771C228.257 332.905 276.787 284.374 336.653 284.374C396.518 284.374 445.049 332.905 445.049 392.771Z" fill="#EEEEEE" stroke="black" stroke-width="2.87927" stroke-linecap="round" stroke-linejoin="round"/>
<path fill-rule="evenodd" clip-rule="evenodd" d="M409.702 392.771C409.702 433.115 376.997 465.82 336.653 465.82C296.309 465.82 263.603 433.115 263.603 392.771C263.603 352.427 296.309 319.721 336.653 319.721C376.997 319.721 409.702 352.427 409.702 392.771Z" fill="white" stroke="black" stroke-width="2.91057" stroke-linecap="round" stroke-linejoin="round"/>
<path fill-rule="evenodd" clip-rule="evenodd" d="M748.228 43.0174H897.624L885.916 23.7675C878.24 11.1464 858.285 1.77979 822.926 1.77979C787.567 1.77979 767.612 11.1464 759.936 23.7675L748.228 43.0174Z" fill="white" stroke="black" stroke-width="3.15468"/>
<path fill-rule="evenodd" clip-rule="evenodd" d="M748.228 75.3986H897.624L885.916 56.1486C878.24 43.5275 858.285 34.1609 822.926 34.1609C787.567 34.1609 767.612 43.5275 759.936 56.1486L748.228 75.3986Z" fill="white" stroke="black" stroke-width="3.15468"/>
<path fill-rule="evenodd" clip-rule="evenodd" d="M648.344 246.642C648.344 340.995 724.832 417.483 819.185 417.483C913.539 417.483 990.027 340.995 990.027 246.642C990.027 152.288 913.539 75.8 819.185 75.8C724.832 75.8 648.344 152.288 648.344 246.642Z" fill="#C1C1C1" stroke="black" stroke-width="3.17659" stroke-linecap="round" stroke-linejoin="round"/>
<path fill-rule="evenodd" clip-rule="evenodd" d="M784.118 120.384C777.196 120.384 771.583 125.997 771.583 132.918V198.969H705.391C698.47 198.969 692.998 204.582 692.998 211.504V281.78C692.998 288.701 698.47 294.314 705.391 294.314H771.583V360.365C771.583 367.287 777.196 372.899 784.118 372.899H854.394C861.315 372.899 866.787 367.287 866.787 360.365V294.314H932.979C939.901 294.314 945.372 288.701 945.372 281.78V211.504C945.372 204.582 939.901 198.969 932.979 198.969H866.787V132.918C866.787 125.997 861.315 120.384 854.394 120.384H784.118V120.384Z" fill="#EEEEEE" stroke="black" stroke-width="2.32258"/>
<path d="M439.451 251.527H401.159C397.255 251.527 394.09 254.692 394.09 258.596V274.502C394.09 278.406 397.255 281.571 401.159 281.571H439.451C443.356 281.571 446.521 278.406 446.521 274.502V258.596C446.521 254.692 443.356 251.527 439.451 251.527Z" fill="white" stroke="black" stroke-width="3" stroke-linecap="round" stroke-linejoin="round"/>
<path fill-rule="evenodd" clip-rule="evenodd" d="M528.217 180.443C528.217 200.192 512.207 216.202 492.458 216.202C472.709 216.202 456.699 200.192 456.699 180.443C456.699 160.693 472.709 144.683 492.458 144.683C512.207 144.683 528.217 160.693 528.217 180.443Z" fill="white" stroke="black" stroke-width="3.1086" stroke-linecap="round" stroke-linejoin="round"/>
<path fill-rule="evenodd" clip-rule="evenodd" d="M856.299 167.112C856.299 187.609 839.683 204.226 819.185 204.226C798.688 204.226 782.071 187.609 782.071 167.112C782.071 146.614 798.688 129.998 819.185 129.998C839.683 129.998 856.299 146.614 856.299 167.112Z" fill="white" stroke="black" stroke-width="2.25334" stroke-linecap="round" stroke-linejoin="round"/>
<path fill-rule="evenodd" clip-rule="evenodd" d="M856.299 326.76C856.299 347.258 839.683 363.874 819.185 363.874C798.688 363.874 782.071 347.258 782.071 326.76C782.071 306.263 798.688 289.647 819.185 289.647C839.683 289.647 856.299 306.263 856.299 326.76Z" fill="white" stroke="black" stroke-width="2.25334" stroke-linecap="round" stroke-linejoin="round"/>
<path fill-rule="evenodd" clip-rule="evenodd" d="M861.896 246.936C861.896 226.439 878.512 209.822 899.01 209.822C919.507 209.822 936.124 226.439 936.124 246.936C936.124 267.434 919.507 284.05 899.01 284.05C878.512 284.05 861.896 267.434 861.896 246.936Z" fill="white" stroke="black" stroke-width="2.25334" stroke-linecap="round" stroke-linejoin="round"/>
<path fill-rule="evenodd" clip-rule="evenodd" d="M702.247 246.936C702.247 226.439 718.864 209.822 739.361 209.822C759.858 209.822 776.475 226.439 776.475 246.936C776.475 267.434 759.858 284.05 739.361 284.05C718.864 284.05 702.247 267.434 702.247 246.936Z" fill="white" stroke="black" stroke-width="2.25334" stroke-linecap="round" stroke-linejoin="round"/>
<path fill-rule="evenodd" clip-rule="evenodd" d="M137.006 118.211C130.085 118.211 124.472 123.824 124.472 130.745V196.796H58.28C51.3584 196.796 45.8865 202.409 45.8866 209.33V279.607C45.8866 286.528 51.3585 292.141 58.28 292.141H124.472V358.192C124.472 365.113 130.085 370.726 137.006 370.726H207.282C214.204 370.726 219.676 365.113 219.676 358.192V292.141H285.868C292.789 292.141 298.261 286.528 298.261 279.607V209.33C298.261 202.409 292.789 196.796 285.868 196.796H219.676V130.745C219.676 123.824 214.204 118.211 207.282 118.211H137.006V118.211Z" fill="#EEEEEE" stroke="black" stroke-width="2.32258"/>
<path fill-rule="evenodd" clip-rule="evenodd" d="M760.812 392.771C760.812 452.636 712.281 501.167 652.415 501.167C592.55 501.167 544.019 452.636 544.019 392.771C544.019 332.905 592.55 284.374 652.415 284.374C712.281 284.374 760.812 332.905 760.812 392.771Z" fill="#EEEEEE" stroke="black" stroke-width="2.87927" stroke-linecap="round" stroke-linejoin="round"/>
<path fill-rule="evenodd" clip-rule="evenodd" d="M725.465 392.771C725.465 433.115 692.76 465.82 652.415 465.82C612.071 465.82 579.366 433.115 579.366 392.771C579.366 352.427 612.071 319.721 652.415 319.721C692.76 319.721 725.465 352.427 725.465 392.771Z" fill="white" stroke="black" stroke-width="2.91057" stroke-linecap="round" stroke-linejoin="round"/>
<path fill-rule="evenodd" clip-rule="evenodd" d="M172.074 131.509L155.023 147.705H189.125L172.074 131.509Z" fill="white" stroke="black" stroke-width="1.89943"/>
<path fill-rule="evenodd" clip-rule="evenodd" d="M172.074 357.428L155.023 341.232H189.125L172.074 357.428Z" fill="white" stroke="black" stroke-width="1.89943"/>
<path fill-rule="evenodd" clip-rule="evenodd" d="M285.033 244.468L268.838 227.418V261.519L285.033 244.468Z" fill="white" stroke="black" stroke-width="1.89943"/>
<path fill-rule="evenodd" clip-rule="evenodd" d="M59.1147 244.468L75.3099 227.418V261.519L59.1147 244.468Z" fill="white" stroke="black" stroke-width="1.89943"/>
<path d="M583.06 251.527H544.768C540.864 251.527 537.699 254.692 537.699 258.596V274.502C537.699 278.406 540.864 281.571 544.768 281.571H583.06C586.964 281.571 590.129 278.406 590.129 274.502V258.596C590.129 254.692 586.964 251.527 583.06 251.527Z" fill="white" stroke="black" stroke-width="3" stroke-linecap="round" stroke-linejoin="round"/>
</svg>
